<?xml version="1.0" encoding="UTF-8"?>
<!DOCTYPE svg PUBLIC "-//W3C//DTD SVG 1.1//EN" "http://www.w3.org/Graphics/SVG/1.1/DTD/svg11.dtd">
<!-- Creator: CorelDRAW X6 -->
<svg xmlns="http://www.w3.org/2000/svg" xml:space="preserve" width="18.4856cm" height="5.5386cm" version="1.1" style="shape-rendering:geometricPrecision; text-rendering:geometricPrecision; image-rendering:optimizeQuality; fill-rule:evenodd; clip-rule:evenodd"
viewBox="0 0 18486 5539"
 xmlns:xlink="http://www.w3.org/1999/xlink">
 <defs>
  <style type="text/css">
   <![CDATA[
    .fil0 {fill:#226FB6;fill-rule:nonzero}
   ]]>
  </style>
 </defs>
 <g id="Layer_x0020_1">
  <metadata id="CorelCorpID_0Corel-Layer"/>
  <polygon class="fil0" points="4519,1631 5856,1631 5900,2920 5917,2920 6472,1631 7806,1631 7327,3987 6520,3987 6896,2136 6876,2136 6035,3987 5284,3987 5209,2136 5186,2136 4809,3987 4041,3987 "/>
  <path class="fil0" d="M9657 3112l54 0c253,0 394,-276 394,-481 0,-152 -87,-266 -246,-266l-51 0 -151 747zm-670 -747l-51 0c-239,0 -401,253 -401,475 0,138 85,272 246,272l54 0 151 -747zm-377 1663l74 -377 -162 0c-620,0 -845,-350 -845,-700 0,-519 418,-1125 1239,-1125l142 0 70 -353 903 0 -71 353 141 0c330,0 862,78 862,704 0,549 -394,1121 -1199,1121l-178 0 -74 377 -902 0z"/>
  <polygon class="fil0" points="13651,1631 13509,2328 12715,2328 12378,3987 11476,3987 11813,2328 11018,2328 11159,1631 "/>
  <polygon class="fil0" points="14755,1631 14482,2977 14496,2977 15365,1631 16419,1631 15940,3987 15038,3987 15307,2668 15294,2668 14429,3987 13375,3987 13853,1631 "/>
  <polygon class="fil0" points="17119,4875 17247,4208 18510,4587 18510,4587 "/>
  <path class="fil0" d="M16820 4360l-13044 0c-241,0 -346,267 -447,526 -36,90 -91,232 -134,290 -77,-77 -134,-444 -155,-589l-13 -80c-78,-497 -147,-1020 -215,-1527 -296,-2215 -436,-2990 -847,-2998 -516,-10 -700,905 -1244,3619l-71 354c-81,404 -265,404 -344,404l-245 0 -61 349 306 0c205,0 566,-89 686,-684l71 -355c335,-1673 653,-3252 877,-3331 195,208 386,1635 526,2687 68,508 138,1034 217,1534l12 78c61,400 137,899 513,899 241,0 346,-267 447,-526 39,-99 102,-259 146,-304l12960 0 61 -349z"/>
 </g>
</svg>
